<?xml version="1.0" standalone="no"?>
<!DOCTYPE svg PUBLIC "-//W3C//DTD SVG 20010904//EN"
 "http://www.w3.org/TR/2001/REC-SVG-20010904/DTD/svg10.dtd">
<svg version="1.0" xmlns="http://www.w3.org/2000/svg"
 width="260.000000pt" height="260.000000pt" viewBox="0 0 260.000000 260.000000"
 preserveAspectRatio="xMidYMid meet">
<metadata>
Created by potrace 1.14, written by Peter Selinger 2001-2017
</metadata>
<g transform="translate(0.000000,260.000000) scale(0.100000,-0.100000)"
fill="#000000" stroke="none">
<path d="M1060 1785 l0 -205 -44 34 c-71 54 -128 71 -231 71 -119 -1 -192 -32
-269 -116 -144 -155 -139 -416 10 -566 67 -67 139 -96 249 -101 107 -5 184 19
246 75 l39 35 0 -51 0 -51 70 0 70 0 0 540 0 540 -70 0 -70 0 0 -205z m-156
-239 c47 -20 104 -73 128 -120 25 -49 35 -154 19 -212 -18 -66 -65 -128 -122
-159 -99 -53 -238 -31 -305 48 -47 56 -64 105 -64 190 0 121 40 195 132 241
60 30 156 35 212 12z"/>
<path d="M1715 1681 c-55 -15 -101 -38 -138 -71 l-37 -32 0 51 0 51 -70 0 -70
0 0 -530 0 -530 70 0 70 0 0 196 0 196 42 -36 c67 -58 136 -79 243 -74 70 3
102 10 147 30 232 107 292 443 112 637 -73 79 -149 114 -259 117 -44 2 -93 -1
-110 -5z m211 -156 c30 -19 60 -49 79 -79 26 -43 30 -60 33 -137 3 -70 0 -95
-15 -130 -46 -103 -121 -152 -233 -152 -157 0 -260 122 -248 293 6 77 32 134
84 180 57 50 89 61 175 58 64 -3 83 -8 125 -33z"/>
</g>
</svg>
