<?xml version="1.0" standalone="no"?>
<!DOCTYPE svg PUBLIC "-//W3C//DTD SVG 20010904//EN"
 "http://www.w3.org/TR/2001/REC-SVG-20010904/DTD/svg10.dtd">
<svg version="1.0" xmlns="http://www.w3.org/2000/svg"
 width="260.000000pt" height="260.000000pt" viewBox="0 0 260.000000 260.000000"
 preserveAspectRatio="xMidYMid meet">
<metadata>
Created by potrace 1.14, written by Peter Selinger 2001-2017
</metadata>
<g transform="translate(0.000000,260.000000) scale(0.100000,-0.100000)"
fill="#000000" stroke="none">
<path d="M0 1300 l0 -1300 1300 0 1300 0 0 1300 0 1300 -1300 0 -1300 0 0
-1300z m2063 485 c84 -17 161 -55 210 -103 l37 -36 -57 -58 c-32 -32 -62 -58
-68 -58 -5 0 -27 14 -49 30 -58 44 -127 63 -205 58 -147 -11 -242 -102 -257
-246 -13 -119 48 -230 150 -278 63 -29 183 -33 246 -8 l40 16 0 129 0 130 93
-3 92 -3 0 -180 0 -180 -50 -27 c-122 -67 -292 -95 -418 -69 -257 54 -417 305
-352 554 65 250 313 390 588 332z m-1407 -270 c87 -146 161 -265 164 -265 3 0
75 118 161 263 l155 262 87 3 87 3 0 -441 0 -440 -95 0 -95 0 0 263 0 262
-127 -212 -126 -213 -51 0 -51 0 -120 200 -120 199 -5 -247 -5 -247 -95 0 -95
0 -3 438 -2 437 88 0 89 0 159 -265z"/>
</g>
</svg>
