<?xml version="1.0" encoding="iso-8859-1"?>
<!-- Generator: Adobe Illustrator 19.0.0, SVG Export Plug-In . SVG Version: 6.00 Build 0)  -->
<svg version="1.1" id="Layer_1" xmlns="http://www.w3.org/2000/svg" xmlns:xlink="http://www.w3.org/1999/xlink" x="0px" y="0px"
	 viewBox="0 0 512 512" style="enable-background:new 0 0 512 512;" xml:space="preserve">
<g>
	<g>
		<g>
			<path d="M314.773,348.629l-58.795-14.677l-2.347-9.451c40.256-7.189,61.12-19.328,62.08-19.904
				c3.008-1.771,4.885-4.971,5.12-8.448c0.256-3.499-1.301-6.933-4.011-9.131c-0.277-0.213-27.413-23.104-27.413-101.952
				c0-69.845-16.853-105.28-50.091-105.28h-3.541C224.491,69.077,215.147,64,192,64c-30.528,0-97.387,30.485-97.387,121.045
				c0,78.869-27.136,101.739-27.264,101.845c-2.837,2.133-4.437,5.525-4.245,9.067c0.171,3.563,2.112,6.763,5.141,8.597
				c0.939,0.555,21.632,12.779,62.144,19.989l-2.347,9.387l-58.795,14.699C28.459,358.805,0,395.285,0,437.333
				C0,443.221,4.779,448,10.667,448h362.667c5.888,0,10.667-4.821,10.667-10.709C384,395.285,355.541,358.805,314.773,348.629z"/>
			<path d="M442.773,348.629l-58.795-14.677l-4.331-17.429c15.552-15.915,26.304-37.248,29.888-59.264
				c9.195-3.264,16.128-11.499,17.365-21.632l3.947-31.531c0.939-7.467-1.365-14.976-6.315-20.629
				c-2.411-2.773-5.376-4.992-8.64-6.528l1.301-26.667l5.184-5.205c9.557-10.197,17.536-27.563,1.173-52.565
				c-12.373-18.901-33.259-28.48-62.059-28.48c-11.499,0-38.421,0-63.211,17.6c-4.245,3.029-5.696,8.725-3.371,13.397
				c10.496,21.333,15.829,51.627,15.829,90.048c0,52.459,12.608,75.733,18.048,83.307c0.875,1.237,2.027,2.261,3.328,3.029
				c8.576,4.971,12.736,12.928,13.035,25.045c0.235,8.853-5.269,15.829-9.92,20.117c-2.645,2.453-3.883,6.059-3.285,9.6
				c0.576,3.563,2.944,6.571,6.229,8c40.789,17.963,67.157,58.453,67.157,103.168c0,5.888,4.779,10.667,10.667,10.667h85.333
				c5.888,0,10.667-4.821,10.667-10.709C512,395.285,483.541,358.805,442.773,348.629z"/>
		</g>
	</g>
</g>
<g>
</g>
<g>
</g>
<g>
</g>
<g>
</g>
<g>
</g>
<g>
</g>
<g>
</g>
<g>
</g>
<g>
</g>
<g>
</g>
<g>
</g>
<g>
</g>
<g>
</g>
<g>
</g>
<g>
</g>
</svg>
