<?xml version="1.0" encoding="iso-8859-1"?>
<!-- Generator: Adobe Illustrator 16.0.0, SVG Export Plug-In . SVG Version: 6.00 Build 0)  -->
<!DOCTYPE svg PUBLIC "-//W3C//DTD SVG 1.1//EN" "http://www.w3.org/Graphics/SVG/1.1/DTD/svg11.dtd">
<svg version="1.1" id="Capa_1" xmlns="http://www.w3.org/2000/svg" xmlns:xlink="http://www.w3.org/1999/xlink" x="0px" y="0px"
	 width="95.098px" height="95.098px" viewBox="0 0 95.098 95.098" style="enable-background:new 0 0 95.098 95.098;"
	 xml:space="preserve">
<g>
	<path d="M92.961,0H2.137C0.957,0,0,0.957,0,2.137v90.824c0,1.18,0.957,2.137,2.137,2.137h90.824c1.18,0,2.137-0.957,2.137-2.137
		V2.137C95.098,0.957,94.141,0,92.961,0z M79.561,69.389l-7.929,7.928c-0.069,0.069-0.144,0.133-0.226,0.188l-0.187,0.128
		c-1.995,1.595-4.623,2.403-7.815,2.403c-8.939,0-21.317-6.601-31.534-16.816C17.515,48.863,11.207,31.551,17.51,23.806l0.015-0.017
		c0.07-0.125,0.157-0.241,0.261-0.344l7.915-7.915c0.624-0.624,1.634-0.624,2.257,0l13.54,13.54
		c0.299,0.299,0.468,0.705,0.468,1.128c0,0.423-0.169,0.829-0.468,1.128l-7.072,7.072c0.616,1.729,3.103,7.845,9.238,13.98
		c5.914,5.913,11.053,7.793,12.986,8.328l7.113-7.113c0.623-0.623,1.633-0.623,2.256,0l13.541,13.54
		c0.299,0.299,0.467,0.705,0.467,1.128S79.859,69.09,79.561,69.389z"/>
</g>
</svg>
