<?xml version="1.0" standalone="no"?>
<!DOCTYPE svg PUBLIC "-//W3C//DTD SVG 20010904//EN"
 "http://www.w3.org/TR/2001/REC-SVG-20010904/DTD/svg10.dtd">
<svg version="1.0" xmlns="http://www.w3.org/2000/svg"
 width="260.000000pt" height="260.000000pt" viewBox="0 0 260.000000 260.000000"
 preserveAspectRatio="xMidYMid meet">
<metadata>
Created by potrace 1.14, written by Peter Selinger 2001-2017
</metadata>
<g transform="translate(0.000000,260.000000) scale(0.100000,-0.100000)"
fill="#000000" stroke="none">
<path d="M0 1300 l0 -1300 1300 0 1300 0 0 1300 0 1300 -1300 0 -1300 0 0
-1300z m895 573 c9 -25 320 -868 361 -981 l34 -93 -112 3 -111 3 -45 133 -44
132 -201 -2 -200 -3 -45 -132 -44 -133 -109 0 c-60 0 -109 2 -109 5 0 4 302
824 391 1063 8 21 14 22 118 22 94 0 110 -2 116 -17z m1190 -2 c23 -10 60 -40
83 -66 77 -88 93 -215 39 -322 -25 -49 -86 -113 -110 -113 -7 -1 6 -10 28 -22
103 -52 158 -145 158 -264 0 -122 -60 -207 -182 -256 -53 -22 -72 -23 -378
-26 l-323 -3 0 545 0 546 323 0 c291 0 326 -2 362 -19z"/>
<path d="M706 1447 c-38 -111 -71 -208 -74 -214 -3 -10 30 -13 146 -13 l150 0
-71 215 c-40 118 -74 215 -77 215 -3 0 -36 -91 -74 -203z"/>
<path d="M1620 1575 l0 -135 158 0 c140 0 161 2 190 20 61 37 79 133 37 196
-29 45 -70 54 -235 54 l-150 0 0 -135z"/>
<path d="M1620 1125 l0 -145 168 0 c139 0 173 3 201 18 73 36 98 115 63 194
-31 70 -57 78 -261 78 l-171 0 0 -145z"/>
</g>
</svg>
