<?xml version="1.0" standalone="no"?>
<!DOCTYPE svg PUBLIC "-//W3C//DTD SVG 20010904//EN"
 "http://www.w3.org/TR/2001/REC-SVG-20010904/DTD/svg10.dtd">
<svg version="1.0" xmlns="http://www.w3.org/2000/svg"
 width="260.000000pt" height="260.000000pt" viewBox="0 0 260.000000 260.000000"
 preserveAspectRatio="xMidYMid meet">
<metadata>
Created by potrace 1.14, written by Peter Selinger 2001-2017
</metadata>
<g transform="translate(0.000000,260.000000) scale(0.100000,-0.100000)"
fill="#000000" stroke="none">
<path d="M755 1777 c-141 -47 -204 -129 -205 -266 0 -161 44 -196 359 -291
124 -38 171 -74 171 -133 0 -46 -39 -93 -88 -107 -106 -29 -280 10 -378 85
l-32 25 -15 -23 c-8 -12 -24 -42 -37 -66 l-22 -45 23 -19 c81 -65 224 -107
365 -107 222 0 335 79 351 243 7 81 -9 138 -53 187 -46 51 -108 80 -268 124
-70 20 -141 43 -157 52 -44 22 -63 57 -56 105 10 74 64 109 170 109 78 0 147
-20 211 -60 26 -17 49 -30 51 -28 1 2 17 30 36 62 l33 59 -30 23 c-16 13 -58
36 -94 50 -55 23 -83 28 -180 30 -77 3 -128 -1 -155 -9z"/>
<path d="M1340 1710 l0 -70 269 -2 268 -3 -273 -335 -273 -335 -1 -67 0 -68
375 0 375 0 0 75 0 75 -270 2 -270 3 270 340 270 340 0 58 0 57 -370 0 -370 0
0 -70z"/>
</g>
</svg>
