<?xml version="1.0" encoding="iso-8859-1"?>
<!-- Generator: Adobe Illustrator 19.0.0, SVG Export Plug-In . SVG Version: 6.00 Build 0)  -->
<svg version="1.1" id="Capa_1" xmlns="http://www.w3.org/2000/svg" xmlns:xlink="http://www.w3.org/1999/xlink" x="0px" y="0px"
	 viewBox="0 0 512 512" style="enable-background:new 0 0 512 512;" xml:space="preserve">
<g>
	<g>
		<path d="M301.568,363.104l-70.272-15.296V327.04c3.68-5.312,7.104-12.096,10.656-19.136c2.656-5.248,6.656-13.184,8.32-15.072
			c11.424-11.168,23.584-25.056,27.36-43.392c3.776-18.272-0.992-27.648-3.744-31.328c0-12.864,0-36.32-4.48-53.536
			c-0.512-20.768-4.576-33.12-14.336-43.744c-7.328-7.936-17.664-9.664-25.952-11.072c-2.688-0.448-6.72-1.12-7.936-1.728
			C207.2,100.256,192.992,96.448,175.392,96c-35.52,1.344-79.168,23.968-93.792,64.544c-4.16,11.52-4.16,28.736-3.776,48.448
			l-0.032,7.808c-2.56,5.024-7.328,14.4-3.552,32.64c3.776,18.368,15.936,32.256,27.264,43.328c1.76,1.984,5.824,9.952,8.512,15.232
			c3.584,7.008,7.008,13.76,10.688,19.04v20.768l-70.272,15.296C21.216,369.408,0,395.712,0,425.632V464c0,8.832,7.168,16,16,16h320
			c8.832,0,16-7.168,16-16v-38.368C352,395.712,330.784,369.408,301.568,363.104z"/>
	</g>
</g>
<g>
	<g>
		<path d="M461.568,299.104l-70.272-15.296V263.04c3.68-5.312,7.104-12.096,10.656-19.136c2.656-5.248,6.656-13.184,8.32-15.072
			c11.424-11.168,23.584-25.056,27.36-43.392c3.776-18.272-0.992-27.648-3.744-31.328c0-12.864,0-36.32-4.48-53.536
			c-0.512-20.736-4.576-33.12-14.336-43.712c-7.328-7.936-17.664-9.664-25.952-11.072c-2.688-0.448-6.72-1.152-7.936-1.728
			C367.2,36.256,352.992,32.448,335.392,32c-30.88,1.184-67.776,18.432-86.56,49.536c9.504,2.752,20.416,7.488,29.76,17.6
			c14.656,15.968,21.536,34.368,22.688,61.088c3.776,16.864,4.48,36.192,4.608,49.92c4.32,10.176,7.328,25.28,3.104,45.792
			c-5.216,25.312-20.32,43.744-33.76,57.216c-1.472,2.656-3.296,6.368-4.672,9.12c-0.192,0.416-0.416,0.768-0.608,1.184l38.4,8.352
			c40.64,8.8,70.624,43.424,74.816,84.192H496c8.832,0,16-7.168,16-16v-38.368C512,331.712,490.784,305.408,461.568,299.104z"/>
	</g>
</g>
<g>
</g>
<g>
</g>
<g>
</g>
<g>
</g>
<g>
</g>
<g>
</g>
<g>
</g>
<g>
</g>
<g>
</g>
<g>
</g>
<g>
</g>
<g>
</g>
<g>
</g>
<g>
</g>
<g>
</g>
</svg>
