<?xml version="1.0"?>
<svg xmlns="http://www.w3.org/2000/svg" xmlns:xlink="http://www.w3.org/1999/xlink" version="1.1" id="Capa_1" x="0px" y="0px" viewBox="0 0 242.667 242.667" style="enable-background:new 0 0 242.667 242.667;" xml:space="preserve" width="512px" height="512px"><g><g>
	<path d="M129.453,133.811c-22.391,6.735-40.97,29.926-48.251,40.105c11.132,8.509,25.037,13.574,40.131,13.574   c8.765,0,17.125-1.72,24.78-4.816c-1.309-7.497-5.266-27.125-14.03-49.612C131.208,133.299,130.331,133.547,129.453,133.811z" data-original="#000000" class="active-path" data-old_color="#000000" fill="#ED4989"/>
	<path d="M116.314,99.719c-9.72-17.858-18.904-31.339-23.687-38.007c-18.001,8.683-31.452,25.283-35.874,45.277   C68.608,107.107,92.3,106.328,116.314,99.719z" data-original="#000000" class="active-path" data-old_color="#000000" fill="#ED4989"/>
	<path d="M164.674,71.373c-11.611-10.081-26.757-16.197-43.34-16.197c-5.487,0-10.813,0.68-15.911,1.939   c3.874,5.418,14.092,20.128,24.222,38.218C148.759,87.802,159.529,77.549,164.674,71.373z" data-original="#000000" class="active-path" data-old_color="#000000" fill="#ED4989"/>
	<path d="M127.135,121.292c-0.698-1.545-1.41-3.094-2.155-4.647c-1.008-2.103-2.022-4.163-3.039-6.185   c-28.074,7.868-56.351,9.206-66.728,9.422c-0.01,0.484-0.037,0.964-0.037,1.451c0,16.3,5.906,31.213,15.68,42.744   c1.731-2.144,4.018-4.829,7.037-8.135C87.281,145.66,99.984,130.133,127.135,121.292z" data-original="#000000" class="active-path" data-old_color="#000000" fill="#ED4989"/>
	<path d="M0,0v242.667h242.667V0H0z M121.333,200.675c-43.819,0-79.342-35.523-79.342-79.342c0-43.819,35.522-79.342,79.342-79.342   c43.819,0,79.342,35.522,79.342,79.342C200.675,165.152,165.153,200.675,121.333,200.675z" data-original="#000000" class="active-path" data-old_color="#000000" fill="#ED4989"/>
	<path d="M135.391,106.025c0.722,1.404,1.44,2.817,2.145,4.242c1.228,2.482,2.397,5.034,3.519,7.62   c17.901-2.799,36.339-0.236,46.392,1.72c-0.382-14.881-5.671-28.534-14.318-39.408C168.037,86.343,156.402,97.791,135.391,106.025z   " data-original="#000000" class="active-path" data-old_color="#000000" fill="#ED4989"/>
	<path d="M145.984,130.328c6.954,19.19,11.133,38.015,12.68,45.622c14.678-10.052,25.096-25.862,28-44.178   C186.524,131.738,168.203,127.449,145.984,130.328z" data-original="#000000" class="active-path" data-old_color="#000000" fill="#ED4989"/>
</g></g> </svg>
