<svg width="18" height="12" viewBox="0 0 18 12" fill="none" xmlns="http://www.w3.org/2000/svg">
<path fill-rule="evenodd" clip-rule="evenodd" d="M17.8105 1.56237C17.5724 1.38613 16.7167 1.38613 15.8699 1.38613C15.0052 1.40373 14.1404 1.40373 13.9374 1.48322C13.7526 1.55367 13.3379 2.55946 12.7999 3.59135C12.1818 4.75645 11.4324 5.88549 10.9557 5.86722C10.3295 5.86722 10.4797 3.953 10.5237 2.53303C10.5322 1.6064 10.3823 1.30624 10.25 1.22742C9.92352 0.997719 9.02391 0.777781 9.02391 0.777781C9.02391 0.777781 6.32377 0.574446 5.94485 1.73901C6.46521 1.80967 7.34755 1.65043 7.00343 5.25861C6.97707 5.43552 6.58866 6.91737 5.33591 4.91456C5.01822 4.41213 3.81879 1.40373 3.39525 1.38613C2.00955 1.35943 0.63388 1.29781 0.15788 1.56237C-0.292421 1.82727 0.757396 3.89137 2.53084 6.66191C3.9684 8.93778 5.49488 10.7025 8.14157 11.1433C8.64433 11.1967 9.93268 11.2489 10.3475 11.0553C10.6205 10.9227 10.2765 8.96454 11.2206 8.76997C11.6354 8.69088 13.2493 10.8171 13.8579 11.0553C14.2294 11.2052 15.0406 11.2668 15.8699 11.2313C16.7698 11.2052 17.7926 11.3199 17.8897 10.7025C18.1106 9.35256 15.1644 7.58754 15.0847 6.75859C15.014 6.15875 16.1612 5.05614 16.7431 4.20899C17.4661 3.18561 18.2608 1.95072 17.8105 1.56237Z" fill="#3b82f6"/>
</svg>
