<svg height="512pt" viewBox="0 0 512 512" width="512pt" xmlns="http://www.w3.org/2000/svg"><path d="m503.535156 243.832031c-3.464844 14.382813-16.210937 26.097657-33.011718 26.097657h-224.734376c-26.082031 0-42.390624-28.242188-29.34375-50.835938l112.367188-194.625c8.21875-14.25 24.226562-19.511719 38.207031-15.789062 8.179688 2.179687 15.667969 7.4375 20.484375 15.789062l112.367188 194.625c4.648437 8.039062 5.570312 16.800781 3.664062 24.738281zm0 0" fill="#d63030"/><path d="m503.535156 243.832031h-213.585937c-26.082031 0-42.390625-28.242187-29.34375-50.832031l106.414062-184.320312c8.179688 2.179687 15.667969 7.4375 20.484375 15.789062l112.367188 194.625c4.648437 8.039062 5.570312 16.800781 3.664062 24.738281zm0 0" fill="#f44545"/><path d="m358.15625 55.972656c-15.214844 0-27.230469 12.914063-26.136719 28.089844l4.386719 60.890625c.820312 11.347656 10.265625 20.136719 21.640625 20.136719 11.347656 0 20.777344-8.742188 21.632813-20.058594l4.609374-60.875c1.148438-15.207031-10.878906-28.183594-26.132812-28.183594zm0 0" fill="#af2727"/><path d="m383.691406 217.253906c0 14.101563-11.433594 25.53125-25.535156 25.53125s-25.53125-11.429687-25.53125-25.53125c0-14.101562 11.429688-25.535156 25.53125-25.535156s25.535156 11.433594 25.535156 25.535156zm0 0" fill="#af2727"/><path d="m291.292969 479.902344c0 13.152344-10.660157 23.8125-23.816407 23.8125h-236.878906c-13.15625 0-23.816406-10.652344-23.816406-23.8125 0-59.96875 48.582031-108.828125 108.820312-108.828125h66.867188c60.234375 0 108.824219 48.859375 108.824219 108.828125zm0 0" fill="#d2d2d7"/><path d="m291.292969 479.902344c0 13.152344-10.660157 23.8125-23.816407 23.8125h-214.734374c-13.152344 0-23.8125-10.652344-23.8125-23.8125 0-59.96875 48.582031-108.828125 108.820312-108.828125h44.71875c60.234375 0 108.824219 48.859375 108.824219 108.828125zm0 0" fill="#ebebf0"/><path d="m175.515625 370.960938-26.480469 44.933593-26.476562-44.933593v-64.269532h52.957031zm0 0" fill="#f2bb88"/><path d="m162.589844 458.4375h-26.613282l-14.023437 45.277344h55.121094zm0 0" fill="#6990d7"/><path d="m163.003906 459.566406h-27.933594c-3.824218 0-6.949218-3.128906-6.949218-6.949218v-25.15625c0-3.820313 3.128906-6.949219 6.949218-6.949219h27.933594c3.824219 0 6.949219 3.128906 6.949219 6.949219v25.15625c0 3.820312-3.125 6.949218-6.949219 6.949218zm0 0" fill="#91aee2"/><g fill="#f2bb88"><path d="m103.867188 264.746094c0 17.089844-13.851563 30.941406-30.941407 30.941406-17.089843 0-30.941406-13.851562-30.941406-30.941406s13.851563-30.941406 30.941406-30.941406c17.089844 0 30.941407 13.851562 30.941407 30.941406zm0 0"/><path d="m258.804688 264.75c0 17.089844-13.855469 30.941406-30.941407 30.941406-17.089843 0-30.945312-13.851562-30.945312-30.941406 0-17.085938 13.855469-30.941406 30.945312-30.941406 17.085938 0 30.941407 13.855468 30.941407 30.941406zm0 0"/><path d="m230.839844 142.910156v143.882813c0 37.414062-43.789063 68.867187-69.75 77.867187-4.871094 1.683594-9.109375 2.582032-12.320313 2.582032-10.171875 0-30.6875-9.003907-48.660156-23.566407-17.980469-14.554687-33.414063-34.671875-33.414063-56.882812v-143.882813c0-14.671875 11.894532-26.558594 26.554688-26.558594h111.039062c14.667969.003907 26.550782 11.886719 26.550782 26.558594zm0 0"/></g><path d="m230.839844 142.910156v143.882813c0 32.375-32.785156 60.285156-58.441406 73.050781-7.105469 3.535156-15.453126 3.5625-22.558594.03125-8.070313-4.011719-16.847656-9.523438-25.089844-16.199219-17.980469-14.554687-33.414062-34.671875-33.414062-56.882812v-143.882813c0-14.671875 11.894531-26.558594 26.554687-26.558594h86.398437c14.664063.003907 26.550782 11.890626 26.550782 26.558594zm0 0" fill="#f2d1a5"/><path d="m102.851562 353.761719-20.3125 21.1875c-1.632812 1.703125-2.203124 4.164062-1.492187 6.414062l18.441406 58.082031c2.785157 5.097657 9.941407 6.71875 15.042969 3.414063l36.421875-23.589844-37.894531-64.320312c-2.167969-3.675781-7.25-4.269531-10.207032-1.1875zm0 0" fill="#aec2e9"/><path d="m195.222656 353.761719 20.3125 21.1875c1.632813 1.703125 2.203125 4.164062 1.488282 6.414062l-18.4375 58.082031c-2.785157 5.097657-9.941407 6.71875-15.046876 3.414063l-36.417968-23.589844 37.894531-64.320312c2.167969-3.675781 7.253906-4.269531 10.207031-1.1875zm0 0" fill="#aec2e9"/><path d="m243.019531 131.53125v116.730469c0 .84375-1.140625 1.46875-2.328125 1.292969-26.449218-3.96875-48.226562-20.679688-58.09375-29.46875-1.265625-1.125-3.875-.269532-3.375 1.113281l7.703125 21.648437c.421875 1.175782-1.484375 2.085938-2.945312 1.40625-31.628907-14.726562-59.1875-48.75-70.167969-63.605468-.972656-1.316407-3.878906-.6875-3.609375.769531l3.761719 20.164062c.21875 1.125-1.609375 1.90625-2.96875 1.265625-59.394532-27.890625-61.289063-92.328125-61.289063-92.328125v-8.355469c0-2.523437 3.046875-4.554687 6.808594-4.554687h135.832031c27.984375 0 50.671875 15.1875 50.671875 33.921875zm0 0" fill="#f29500"/><path d="m243.019531 131.53125v71.523438c0 .832031-1.140625 1.457031-2.328125 1.28125-26.449218-3.96875-48.226562-20.679688-58.09375-29.457032-1.265625-1.125-3.875-.269531-3.375 1.113282l7.703125 21.648437c.421875 1.164063-1.484375 2.074219-2.945312 1.398437-31.628907-14.714843-59.1875-48.75-70.167969-63.59375-.972656-1.320312-3.878906-.703124-3.609375.765626l3.761719 20.167968c.21875 1.113282-1.609375 1.890625-2.96875 1.253906-31.4375-14.753906-46.765625-39.757812-54.226563-60.023437h135.578125c27.984375 0 50.671875 15.1875 50.671875 33.921875zm0 0" fill="#ffa90b"/><path d="m190.109375 254.972656c-11.34375 2.246094-9.933594 19.28125 1.90625 19.28125 5.371094 0 9.734375-4.355468 9.734375-9.734375 0-6.199219-5.738281-10.785156-11.640625-9.546875zm0 0"/><path d="m107.8125 254.78125c-5.371094 0-9.738281 4.359375-9.738281 9.738281 0 6.039063 5.480469 10.695313 11.542969 9.5625 4.515624-.84375 7.929687-4.796875 7.929687-9.5625 0-5.402343-4.382813-9.738281-9.734375-9.738281zm0 0"/><path d="m122.464844 224.324219c-11.5-2.457031-26.316406-2.386719-37.558594 3.863281-6.367188 3.992188-3.53125 13.898438 4.015625 13.898438 4.09375 0 3.898437-2.550782 11.863281-3.703126 9.238282-1.351562 18.226563.683594 18.617188.683594 4.054687.832032 8.050781-1.765625 8.890625-5.839844.855469-4.066406-1.765625-8.050781-5.828125-8.902343zm0 0"/><path d="m163.3125 281.601562h-26.957031c-4.15625 0-7.527344 3.371094-7.527344 7.527344 0 4.164063 3.371094 7.527344 7.527344 7.527344h26.957031c12.75 0 18.289062 7.867188 20.5625 9.082031 7.550781 4.273438 15.140625-5.738281 8.984375-11.894531-7.890625-7.898438-18.386719-12.242188-29.546875-12.242188zm0 0"/><path d="m149.910156 401.1875c-.003906-.003906-.003906-.007812-.007812-.011719.003906.003907.003906.007813.007812.011719zm0 0"/><path d="m109.441406 362.167969c-4.339844-7.363281 3.824219 6.496093 0 0zm0 0"/><path d="m148.15625 398.210938c3.863281 6.554687-2.746094-4.660157 0 0zm0 0"/><path d="m506.382812 215.332031-112.367187-194.628906c-7.476563-12.964844-20.882813-20.703125-35.859375-20.703125-14.972656 0-28.382812 7.738281-35.867188 20.703125l-70.65625 122.386719v-11.183594c0-23.222656-25.542968-41.417969-58.152343-41.417969h-135.730469c-8.039062 0-14.324219 5.308594-14.324219 12.082031.070313 2.960938-1.492187 21.015626 8.902344 46.839844 1.847656 4.597656 3.945313 9.015625 6.273437 13.230469v65.746094c-33.953124 13.039062-32.453124 61.441406 1.929688 72.582031 5.136719 19.773438 19.648438 36.675781 35.867188 49.460938l-18.996094 19.820312c-45.066406 16.078125-77.402344 59.195312-77.402344 109.71875 0 17.292969 14.070312 31.363281 31.363281 31.363281h237.097657c17.292968 0 31.367187-14.070312 31.367187-31.363281 0-50.53125-32.347656-93.648438-77.421875-109.726562l-20.394531-21.289063c17.625-14.339844 29.234375-30.609375 33.773437-47.027344 13.960938-3.09375 23.632813-12.828125 27.820313-24.46875h206.917969c14.976562 0 28.382812-7.75 35.859374-20.71875 7.488282-12.964843 7.488282-28.441406 0-41.40625zm-447.78125 67.964844c-5.859374-4.265625-9.675781-11.179687-9.675781-18.96875s3.816407-14.695313 9.675781-18.960937zm30.632813 96.367187c.007813-.019531.039063-.058593.121094-.117187.082031-.125 18.667969-19.492187 18.777343-19.601563 12.296876 20.894532-20.191406-34.277343 33.058594 56.113282-.21875.480468-.390625.972656-.511718 1.472656-32.097657 20.785156-29.746094 19.550781-31.214844 19.550781-2.554688 0-2.472656-1.679687-2.578125-1.796875-.984375-3.089844-4.808594-15.132812-17.664063-55.609375 0 0 0 0 .011719-.011719zm74.066406 71.289063c-.109375.621094-.671875 1.136719-1.324219 1.136719l-23.773437.007812c-1.402344-.128906-1.699219-.492187-1.699219-1.355468v-12.566407l13.410156-8.679687 13.40625 8.679687c-.007812 11.191407.03125 12.394531-.019531 12.777344zm-15.144531-52.742187c-1.925781-3.273438-6.460938-10.964844-16.078125-27.285157 13.390625 4.925781 20.777344 4.855469 35.75-1.296875-.523437 2.941406-9.507813 16.902344-17.914063 31.566406-.808593-1.371093-1.371093-2.332031-1.757812-2.984374zm-30.902344 98.066406h-43.769531v-39.292969c0-4.164063-3.371094-7.527344-7.527344-7.527344-4.164062 0-7.523437 3.363281-7.523437 7.527344v39.292969h-27.070313c-8.992187 0-16.308593-7.316406-16.308593-16.308594 0-41.460938 25.011718-77.191406 60.730468-92.886719 18.316406 57.527344 17.261719 54.789063 17.925782 56.003907 3.058593 5.589843 9.089843 9.050781 15.753906 9.050781 6.9375 0 10.910156-3.671875 11.984375-4.214844.210937 1.15625-1.375 9.40625 5.984375 15.488281zm15.757813 0 9.023437-29.136719h16.308594l9.324219 29.136719zm91.03125-109.195313c35.71875 15.695313 60.730469 51.425781 60.730469 92.886719 0 8.992188-7.316407 16.308594-16.3125 16.308594h-27.066407v-39.292969c0-4.164063-3.363281-7.527344-7.527343-7.527344-4.15625 0-7.527344 3.363281-7.527344 7.527344v39.292969h-42.863282l-10.640624-33.261719c6.855468-6.058594 5.328124-13.898437 5.539062-15.09375 1.144531.574219 5.039062 4.214844 11.984375 4.214844 6.664063 0 12.695313-3.460938 15.757813-9.050781.230468-.421876.421874-.875.5625-1.335938zm-13.582031-7.539062c.042968.019531.070312.0625.121093.121093.011719.011719.011719.011719.011719.011719-.992188 3.113281-14.761719 46.5-17.867188 56.28125v.023438c-.007812.019531-.019531.039062-.019531.058593v.007813c-.007812.023437-.019531.042969-.019531.050781-.007812.011719-.007812.03125-.019531.050782 0 .019531-.011719.050781-.019531.070312-.882813.933594-2.820313 1.195312-4.105469.351562-.296875-.191406-.441407-.285156-.5-.324218.0625.042968.214843.140625.328125.210937-.820313-.527343-6.007813-3.890625-29.222656-18.925781-.121094-.5-.292969-.992188-.515626-1.476562.625-1.058594 32.992188-55.992188 33.0625-56.113282.09375.101563 18.664063 19.46875 18.765626 19.601563zm-21.976563 56.988281c-.011719-.007812-.035156-.023438-.070313-.042969.03125.019531.054688.035157.070313.042969zm31.484375-134.425781c-11.964844 32.265625-56.96875 57.167969-71.589844 57.296875h-.089844c-14.394531 0-59.207031-24.648438-71.5-56.824219-4.15625-10.832031-3.132812-5.128906-3.132812-118.710937 9.796875 10.886718 21.679688 19.699218 35.339844 26.113281 5.960937 2.808593 13.226562-.851563 13.6875-7.335938 14.28125 16.589844 35.621094 37.726563 59.253906 48.726563 6.617188 3.050781 14.261719-1.675782 13.671875-8.632813 0-.007812 0-.007812 0-.007812-.140625-1.617188-.621094-2.410157-1.355469-4.628907 8.945313 6.03125 18.363282 11.078126 28.664063 14.714844 0 33.570313.996093 38.65625-2.949219 49.289063zm16.609375-60.941407c-11.359375-2.667968-21.5625-7.613281-31.335937-13.800781-15.683594-9.957031-16.296876-15.023437-23.03125-15.023437-6.375 0-11.050782 5.789062-8.953126 11.691406l2.359376 6.605469c-24.871094-16.109375-45.867188-42.363281-54.570313-54.117188-5.617187-7.609375-18.816406-2.910156-17.050781 6.625l1.476562 7.878907c-13.179687-8.082032-23.828125-18.890626-31.816406-32.320313-9.574219-16.078125-14.734375-36.078125-15.175781-47.921875v-5.238281h135c23.355469 0 43.097656 12.074219 43.097656 26.363281zm1.394531 44.121094c0-7.925781 0-19.53125 0-28.453125 4.023438.769531 7.769532 1.121094 10.898438-2.007812 5.023437 11.144531.464844 24.746093-10.898438 30.460937zm255.375-36.070312c-4.757812 8.257812-13.296875 13.1875-22.824218 13.1875h-204.621094c-.441406-10.257813-4.976563-20.476563-14.269532-28.003906v-61.199219l83.691407-144.96875c4.769531-8.25 13.300781-13.175781 22.832031-13.175781 9.527344 0 18.066406 4.925781 22.824219 13.175781l112.367187 194.628906c4.765625 8.246094 4.765625 18.105469 0 26.355469zm0 0"/><path d="m188.042969 436.25c-.035157-.023438-.039063-.027344 0 0zm0 0"/><path d="m358.046875 172.617188c15.195313 0 27.992187-11.867188 29.140625-27.019532l3.78125-50.019531c.316406-4.148437-2.789062-7.761719-6.9375-8.074219-4.140625-.3125-7.757812 2.792969-8.070312 6.9375l-3.785157 50.023438c-.558593 7.34375-6.761719 13.097656-14.128906 13.097656-7.394531 0-13.601563-5.777344-14.132813-13.148438-4.632812-64.519531-4.4375-60.996093-4.4375-62.269531 0-10.277343 8.378907-18.644531 18.679688-18.644531 5.824219 0 11.214844 2.648438 14.785156 7.261719 2.542969 3.289062 7.269532 3.890625 10.558594 1.347656s3.890625-7.269531 1.347656-10.558594c-6.441406-8.328125-16.171875-13.105469-26.691406-13.105469-19.535156 0-35.066406 16.613282-33.644531 36.15625l4.386719 60.890626c1.097656 15.210937 13.898437 27.125 29.148437 27.125zm0 0"/><path d="m358.15625 184.191406c-18.230469 0-33.058594 14.832032-33.058594 33.0625 0 18.226563 14.828125 33.058594 33.058594 33.058594s33.0625-14.832031 33.0625-33.058594c0-18.230468-14.832031-33.0625-33.0625-33.0625zm0 51.066406c-9.929688 0-18.003906-8.074218-18.003906-18.003906 0-9.929687 8.078125-18.003906 18.003906-18.003906 9.929688 0 18.007812 8.074219 18.007812 18.003906 0 9.929688-8.078124 18.003906-18.007812 18.003906zm0 0"/></svg>